<svg width="135" height="54" viewBox="0 0 135 54" fill="none" xmlns="http://www.w3.org/2000/svg">
<path d="M108.225 43.9926C108.266 44.0198 108.307 44.0393 108.349 44.0531C108.422 44.0915 108.507 44.1133 108.585 44.1174L108.909 44.0893L109.556 44.0482C110.409 43.9878 111.276 43.9583 112.126 43.9582C112.977 43.958 113.84 43.9888 114.688 44.0338C115.535 44.094 116.395 44.185 117.238 44.3204C118.082 44.4408 118.923 44.6214 119.747 44.8314C120.572 45.0414 121.379 45.2957 122.185 45.5953C122.975 45.8941 123.748 46.2524 124.49 46.6393C125.231 47.0412 125.94 47.4868 126.617 47.991C127.972 48.9845 129.154 50.1803 130.139 51.5166C130.385 51.847 130.616 52.1916 130.846 52.5512L131.008 52.8166L131.089 52.9569C131.089 52.9569 131.115 53.0187 131.238 53.1914C131.445 53.429 131.643 53.5604 131.858 53.6624C132.088 53.7501 132.332 53.8387 132.746 53.77C132.953 53.7357 133.209 53.6133 133.411 53.3975C133.613 53.1816 133.715 52.9151 133.755 52.7209L133.788 52.1032L133.718 50.1055C133.627 46.5658 133.493 43.0087 133.155 39.4408C132.831 35.8736 132.288 32.2948 131.406 28.7583C131.174 27.8699 130.927 26.9957 130.666 26.1208L130.466 25.4606L130.416 25.3069L130.378 25.184C130.34 25.0762 130.287 24.9677 130.249 24.8599C130.05 24.4717 129.786 24.1858 129.534 23.9759C129.266 23.7654 128.996 23.615 128.65 23.4909C128.477 23.4364 128.275 23.3804 128.026 23.3672C127.778 23.3539 127.456 23.3519 127.036 23.526C126.93 23.5808 126.826 23.6206 126.705 23.6897C126.598 23.7596 126.491 23.8445 126.383 23.9445C126.275 24.0445 126.182 24.1453 126.102 24.2619C126.023 24.3786 125.943 24.4952 125.893 24.6134C125.677 25.1004 125.671 25.4928 125.685 25.7655C125.694 25.8868 125.716 26.0089 125.739 26.146L125.763 26.2379L125.759 26.3133L125.786 26.36L125.862 26.5906C126.127 27.3902 126.377 28.2042 126.612 29.0173C126.848 29.8304 127.068 30.6579 127.273 31.4845C128.611 36.8526 129.439 42.4402 130.231 48.0891C129.566 47.5275 128.869 47.0122 128.145 46.5465C126.174 45.2786 124.008 44.393 121.796 43.7922C119.584 43.2063 117.328 42.9052 115.062 42.7848C113.936 42.725 112.793 42.7247 111.662 42.7552C110.532 42.7858 109.4 42.8465 108.28 42.9532L108.298 42.9843L108.234 42.981C108.13 43.0057 108.026 43.0454 107.962 43.1327C107.899 43.22 107.893 43.3405 107.902 43.4467C107.934 43.6599 108.056 43.8627 108.225 43.9926Z" fill="url(#paint0_linear_51_6690)"/>
<path d="M0.184714 27.6257C2.06332 24.8905 4.1684 22.3432 6.47047 20.0121C8.77254 17.6811 11.2853 15.5984 13.9231 13.7263C19.2271 9.99972 25.1151 7.23022 31.2424 5.35936C37.3845 3.47424 43.7791 2.53512 50.215 2.3245C56.6506 2.12928 63.1263 2.70876 69.5004 3.95904C75.8745 5.20932 82.1603 7.17774 88.2019 9.74383C91.2297 11.0351 94.2108 12.477 97.1018 14.0814C99.9928 15.6859 102.808 17.4693 105.519 19.3834C110.94 23.2423 115.971 27.7643 120.325 32.8957C122.517 35.4626 124.532 38.1851 126.342 41.0301C127.247 42.4602 128.108 43.9178 128.911 45.4169C129.312 46.1588 129.699 46.9149 130.071 47.6853C130.264 48.0711 130.443 48.4557 130.622 48.8403L130.883 49.4166L130.91 49.4959C130.923 49.5433 130.868 49.4001 130.855 49.3681C130.841 49.3208 130.828 49.2734 130.815 49.2106C130.789 49.1005 130.764 48.9134 130.798 48.7001C130.817 48.4702 130.91 48.1845 131.089 47.9518C131.267 47.7038 131.487 47.5362 131.691 47.4445C131.895 47.3528 132.083 47.3216 132.227 47.3331C132.53 47.3265 132.744 47.4207 132.929 47.5281C133.114 47.6509 133.255 47.801 133.353 47.9477C133.381 47.9808 133.394 48.0281 133.422 48.0613C133.421 48.0921 133.449 48.1252 133.422 48.0613L133.353 47.9169L132.775 46.698C132.375 45.8791 131.975 45.0756 131.546 44.2852C130.703 42.6902 129.786 41.1357 128.826 39.6085C126.904 36.5695 124.734 33.7111 122.401 31.0249C117.72 25.6668 112.345 21.0555 106.591 17.2164C100.838 13.3772 94.6924 10.3091 88.4016 7.92364C82.0961 5.55246 75.6015 3.89137 69.0617 2.95188C62.5224 1.99699 55.9372 1.7945 49.4508 2.32511C42.9644 2.85572 36.5625 4.11829 30.4717 6.28525C24.381 8.45221 18.6022 11.4928 13.4232 15.4299C10.8409 17.399 8.41208 19.5965 6.18024 22.0103C5.05712 23.2166 3.99054 24.4737 2.98048 25.7816C2.47546 26.4356 1.98447 27.1061 1.50789 27.7778L1.15027 28.2892C1.09061 28.377 1.04534 28.466 0.971638 28.5373C0.897931 28.6085 0.796133 28.6467 0.695725 28.6232C0.49491 28.5763 0.325315 28.4239 0.21399 28.2452C0.102664 28.0666 0.0218649 27.8133 0.155579 27.6388L0.184367 27.6411L0.184714 27.6257ZM0.184714 27.6257C0.0653934 27.8013 0.131799 28.0535 0.243124 28.2321C0.35445 28.4108 0.523697 28.5786 0.72486 28.6101C0.825616 28.6182 0.94146 28.5966 1.00077 28.5242C1.07448 28.4529 1.12009 28.3485 1.17941 28.2761L1.53702 27.7647C2.01361 27.093 2.50459 26.4225 3.00962 25.7685C4.01967 24.4606 5.1003 23.22 6.20903 22.0126C8.45492 19.6153 10.9115 17.4664 13.5075 15.5292C18.7135 11.6714 24.5471 8.75866 30.6477 6.79308C33.6982 5.80259 36.8295 5.06543 39.9994 4.53196C43.1693 3.99849 46.3635 3.66755 49.5824 3.52373C56.0053 3.25035 62.4971 3.75398 68.8726 4.94265C75.2481 6.13131 81.5353 8.03813 87.6063 10.5757C93.6777 13.0979 99.5032 16.2948 104.954 20.1252C110.39 23.9544 115.437 28.4468 119.805 33.5794C121.997 36.1462 123.997 38.8675 125.793 41.7268C126.698 43.157 127.544 44.6288 128.333 46.1113C128.734 46.8532 130.062 47.1166 130.434 47.8716L130.709 48.4491L130.97 49.0255L131.108 49.3142C131.108 49.3142 131.205 49.4917 131.246 49.5721C131.469 49.914 131.765 50.2308 132.12 50.4598C132.476 50.6888 131.949 51.3535 132.454 51.3476C132.714 51.3375 132.989 51.2977 133.294 51.1679C133.586 51.0369 133.908 50.8004 134.132 50.4788C134.37 50.1583 134.494 49.7671 134.53 49.4305C134.567 49.094 134.544 48.8145 134.506 48.5954C134.48 48.4699 134.453 48.3906 134.427 48.2804C134.4 48.1857 134.332 47.9951 134.318 47.994L134.263 47.8508L134.222 47.7703L133.933 47.1609C133.74 46.7597 133.547 46.3431 133.34 45.9408C132.94 45.1373 132.526 44.3327 132.097 43.5269C131.239 41.9308 130.322 40.3916 129.347 38.8786C127.396 35.8527 125.226 32.9944 122.892 30.3236C118.212 24.9655 112.865 20.3411 107.127 16.4723C104.258 14.5302 101.284 12.7957 98.2474 11.2414C95.2111 9.68705 92.1131 8.31297 88.968 7.10485C82.7495 4.70978 76.2563 2.98708 69.7327 1.97173C63.2092 0.956377 56.6117 0.660321 50.127 1.11392C46.8777 1.33245 43.6529 1.7381 40.4669 2.34743C37.2808 2.95677 34.1618 3.78748 31.0963 4.80763C24.9792 6.86447 19.1312 9.77604 13.8686 13.5831C8.59134 17.4043 3.91383 22.1222 0.184714 27.6257Z" fill="url(#paint1_linear_51_6690)"/>
<defs>
<linearGradient id="paint0_linear_51_6690" x1="134.549" y1="27.3509" x2="0.0859375" y2="27.3509" gradientUnits="userSpaceOnUse">
<stop stop-color="#F2D411"/>
<stop offset="1" stop-color="#F09800"/>
</linearGradient>
<linearGradient id="paint1_linear_51_6690" x1="134.549" y1="27.3509" x2="0.0859375" y2="27.3509" gradientUnits="userSpaceOnUse">
<stop stop-color="#F2D411"/>
<stop offset="1" stop-color="#F09800"/>
</linearGradient>
</defs>
</svg>
