<svg xmlns="http://www.w3.org/2000/svg" width="20" height="21" viewBox="0 0 20 21" fill="none">
    <path
        d="M7.50029 16.0841C7.33477 16.0851 7.17271 16.0368 7.03478 15.9452C6.89685 15.8537 6.78929 15.7232 6.72581 15.5704C6.66234 15.4175 6.64583 15.2492 6.67839 15.0869C6.71095 14.9246 6.7911 14.7757 6.90862 14.6591L11.3253 10.2508L6.90862 5.84247C6.7517 5.68555 6.66355 5.47272 6.66355 5.25081C6.66355 5.14092 6.68519 5.03212 6.72724 4.9306C6.76929 4.82908 6.83092 4.73684 6.90862 4.65914C6.98632 4.58144 7.07856 4.51981 7.18008 4.47776C7.2816 4.43571 7.39041 4.41406 7.50029 4.41406C7.72221 4.41406 7.93504 4.50222 8.09196 4.65914L13.092 9.65914C13.2472 9.81527 13.3343 10.0265 13.3343 10.2466C13.3343 10.4668 13.2472 10.678 13.092 10.8341L8.09196 15.8341C8.01478 15.9129 7.92274 15.9755 7.82118 16.0184C7.71961 16.0613 7.61055 16.0837 7.50029 16.0841Z"
        fill="#3A3A3A" />
</svg>