<svg width="40" height="40" viewBox="0 0 40 40" fill="none" xmlns="http://www.w3.org/2000/svg">
<g clip-path="url(#clip0_51_7378)">
<path d="M27.7291 39.5604L29.0591 36.4504C29.1991 36.1304 29.5391 35.9504 29.8691 36.0304L33.1091 36.7704C33.6991 36.9104 34.1791 36.2804 33.9091 35.7304L27.7691 23.4004L20.2891 27.2704L26.4291 39.6004C26.6991 40.1504 27.4791 40.1304 27.7291 39.5604Z" fill="white"/>
<path d="M20 0C11.73 0 5 6.86 5 15.29C5 23.72 11.73 30.58 20 30.58C28.27 30.58 35 23.72 35 15.29C35 6.86 28.27 0 20 0ZM26.61 14.31L23.77 17.25L24.44 21.4C24.48 21.66 24.38 21.93 24.18 22.08C23.98 22.24 23.71 22.26 23.49 22.13L19.99 20.17L16.49 22.13C16.391 22.179 16.292 22.208 16.184 22.209C16.186 22.209 16.188 22.21 16.19 22.21H16.18C16.181 22.21 16.183 22.209 16.184 22.209C16.046 22.208 15.918 22.159 15.8 22.08C15.6 21.92 15.5 21.66 15.54 21.4L16.21 17.25L13.37 14.31C13.19 14.12 13.13 13.85 13.2 13.59C13.27 13.33 13.48 13.15 13.73 13.11L17.65 12.51L19.4 8.73C19.62 8.25 20.36 8.25 20.58 8.73L22.33 12.51L26.25 13.11C26.5 13.15 26.7 13.33 26.78 13.59C26.86 13.85 26.79 14.12 26.61 14.31Z" fill="white"/>
<path d="M11.4212 39.56L10.0912 36.45C9.95121 36.13 9.61121 35.95 9.28121 36.03L6.04121 36.77C5.45121 36.91 4.97121 36.28 5.24121 35.73L12.0112 22.52L18.8612 27.26L12.7212 39.59C12.4512 40.14 11.6712 40.12 11.4212 39.55V39.56Z" fill="white"/>
</g>
<defs>
<clipPath id="clip0_51_7378">
<rect width="40" height="40" fill="white"/>
</clipPath>
</defs>
</svg>
