<svg width="24" height="24" viewBox="0 0 24 24" fill="none" xmlns="http://www.w3.org/2000/svg">
<path d="M19.74 6.98782C19.7355 6.70882 19.5758 6.45982 19.3267 6.33382L12.3367 2.82157C12.1252 2.71507 11.8755 2.71507 11.6632 2.82157L4.67325 6.33382C4.4235 6.45982 4.2645 6.70882 4.26 6.98782C4.22775 9.00007 4.55625 17.1128 11.7472 19.5563C11.9077 19.6111 12.0915 19.6111 12.252 19.5563C19.4437 17.1128 19.7722 9.00007 19.74 6.98782ZM15.2362 10.4948L14.1127 11.5898C14.007 11.6933 13.9583 11.8418 13.9838 11.9873L14.2493 13.5331C14.3123 13.8998 13.9275 14.1796 13.5975 14.0063L12.2092 13.2766C12.0787 13.2076 11.922 13.2076 11.7915 13.2766L10.4032 14.0063C10.074 14.1796 9.68925 13.8998 9.7515 13.5331L10.017 11.9873C10.0417 11.8418 9.99375 11.6933 9.888 11.5898L8.7645 10.4948C8.49825 10.2353 8.64525 9.78232 9.0135 9.72907L10.566 9.50332C10.7122 9.48232 10.839 9.39007 10.9042 9.25732L11.5988 7.85107C11.7638 7.51732 12.2392 7.51732 12.4042 7.85107L13.0988 9.25732C13.164 9.39007 13.2908 9.48157 13.437 9.50332L14.9895 9.72907C15.3555 9.78307 15.5025 10.2353 15.2362 10.4948Z" fill="url(#paint0_linear_2001_255)"/>
<path d="M19.4662 14.7113C18.741 16.2098 17.7472 17.5831 16.4377 18.7028L18.9893 21.2543L19.9417 18.7043L22.5 17.7451L19.4662 14.7113Z" fill="url(#paint1_linear_2001_255)"/>
<path d="M4.53375 14.7113L1.5 17.7451L4.0575 18.7051L5.01 21.2551L7.5615 18.7036C6.25275 17.5838 5.259 16.2106 4.53375 14.7113Z" fill="url(#paint2_linear_2001_255)"/>
<defs>
<linearGradient id="paint0_linear_2001_255" x1="1.5" y1="11.9984" x2="22.5" y2="11.9984" gradientUnits="userSpaceOnUse">
<stop stop-color="#151D4A"/>
<stop offset="1" stop-color="#273586"/>
</linearGradient>
<linearGradient id="paint1_linear_2001_255" x1="1.5" y1="11.9984" x2="22.5" y2="11.9984" gradientUnits="userSpaceOnUse">
<stop stop-color="#151D4A"/>
<stop offset="1" stop-color="#273586"/>
</linearGradient>
<linearGradient id="paint2_linear_2001_255" x1="1.5" y1="11.9984" x2="22.5" y2="11.9984" gradientUnits="userSpaceOnUse">
<stop stop-color="#151D4A"/>
<stop offset="1" stop-color="#273586"/>
</linearGradient>
</defs>
</svg>
