<svg width="24" height="24" viewBox="0 0 24 24" fill="none" xmlns="http://www.w3.org/2000/svg">
<mask id="mask0_6_1053" style="mask-type:luminance" maskUnits="userSpaceOnUse" x="0" y="0" width="24" height="24">
<path d="M24 0H0V24H24V0Z" fill="white"/>
</mask>
<g mask="url(#mask0_6_1053)">
<path d="M0.47998 7.10004V14.6801H7.19995L14.6899 4.31006H3.2699C1.7299 4.31006 0.48999 5.56006 0.48999 7.09006L0.47998 7.10004ZM2.3999 7.68005C2.3999 7.30005 2.68995 7.01004 3.06995 7.01004H5.84998C6.22998 7.01004 6.5199 7.30005 6.5199 7.68005V10.4601C6.5199 10.8401 6.22998 11.1301 5.84998 11.1301H3.06995C2.68995 11.1301 2.3999 10.8401 2.3999 10.4601V7.68005Z" fill="#80091A"/>
<path d="M20.74 4.32007H19.49L21.1201 2.02008C21.4101 1.64008 21.31 0.960088 20.93 0.680088C20.55 0.390088 19.87 0.490091 19.59 0.870091C19.4 1.16009 4.23001 22.0901 4.33001 21.9901C4.04001 22.3701 4.13995 23.0501 4.51995 23.3301C4.89995 23.6201 5.58004 23.5201 5.86004 23.1401L7.59002 20.7401H20.65C22.19 20.7401 23.43 19.4901 23.43 17.9601V17.8601H9.79998L12.0099 14.7901H23.53V7.11008C23.53 5.57008 22.2801 4.33008 20.7501 4.33008L20.74 4.32007Z" fill="#80091A"/>
<path d="M0.47998 17.8603C0.47998 19.3003 1.54 20.4503 2.88 20.6403L4.98999 17.7603H0.47998V17.8603Z" fill="#80091A"/>
</g>
</svg>
