<svg width="24" height="24" viewBox="0 0 24 24" fill="none" xmlns="http://www.w3.org/2000/svg">
<path d="M23.73 9.79992C23.4989 8.52211 22.3284 7.4093 21.0473 7.2082C20.4591 7.11117 18.8705 6.99914 17.5083 6.95648C17.5341 7.4107 17.5472 7.87898 17.5481 8.36273V8.36508C17.5481 9.70289 17.4502 10.9085 17.2533 12.0499V12.0598C17.092 12.9504 16.6158 13.811 15.9122 14.4874C15.2175 15.1554 14.3461 15.6002 13.4569 15.7409C12.6417 15.8749 10.4212 16.016 8.85328 16.0399L8.84625 16.0512C8.86125 16.1491 8.87672 16.2438 8.89313 16.3324C9.12469 17.6102 10.2952 18.723 11.5758 18.9237C12.3497 19.0516 14.8523 19.2049 16.2956 19.1923L17.9452 21.8126C18.017 21.9264 18.1164 22.0203 18.2343 22.0853C18.3522 22.1503 18.4846 22.1844 18.6192 22.1844C18.7538 22.1844 18.8863 22.1503 19.0041 22.0853C19.122 22.0203 19.2215 21.9264 19.2933 21.8126L21.1214 18.911C22.3744 18.6813 23.5069 17.5868 23.7338 16.3329C23.8669 15.5599 23.992 14.5048 23.9939 13.0643C23.9958 11.6238 23.8631 10.5724 23.73 9.79992Z" fill="#273586"/>
<path d="M16.1447 4.87102C15.8972 3.50461 14.6447 2.31492 13.2759 2.09977C12.4453 1.96242 9.75094 1.79789 8.21016 1.81242C6.66984 1.79789 3.97547 1.96242 3.14484 2.09977C1.77516 2.31492 0.523125 3.50602 0.276094 4.87102C0.133594 5.69742 0 6.82523 0 8.36648C0 9.90773 0.133594 11.0351 0.276094 11.8596C0.518906 13.2007 1.72922 14.3716 3.06938 14.6173L5.02313 17.7204C5.09992 17.8421 5.2063 17.9424 5.33232 18.0119C5.45834 18.0814 5.59991 18.1178 5.74383 18.1178C5.88774 18.1178 6.02931 18.0814 6.15534 18.0119C6.28136 17.9424 6.38773 17.8421 6.46453 17.7204L8.22891 14.9182C9.7725 14.9313 12.4477 14.7677 13.2759 14.6309C14.6456 14.4157 15.8972 13.2246 16.1447 11.8596C16.2853 11.0332 16.4212 9.90539 16.4231 8.36461C16.425 6.82383 16.2872 5.69742 16.1447 4.87102ZM9.0075 10.1773C9.00981 10.2802 8.99156 10.3826 8.95382 10.4784C8.91609 10.5742 8.85962 10.6615 8.78773 10.7352C8.71585 10.809 8.62998 10.8676 8.53515 10.9077C8.44032 10.9479 8.33844 10.9687 8.23547 10.969C6.86891 10.9552 5.5025 10.9248 4.13625 10.8776C3.92418 10.8659 3.72351 10.7778 3.5714 10.6296C3.41929 10.4814 3.32604 10.283 3.30891 10.0713C3.28359 9.64242 3.62156 9.30398 4.05891 9.31383C5.44391 9.34508 6.82922 9.36555 8.21484 9.37523C8.42594 9.37806 8.62748 9.46372 8.77601 9.61374C8.92455 9.76377 9.00819 9.96615 9.00891 10.1773H9.0075ZM12.2147 7.50539C9.48906 7.52039 6.76328 7.50977 4.03734 7.47352C3.59859 7.46695 3.23297 7.11352 3.22594 6.68461C3.21891 6.2557 3.57516 5.90883 4.01578 5.9093C6.75172 5.91523 9.48766 5.91711 12.2236 5.91492C12.3279 5.9143 12.4313 5.93436 12.5278 5.97392C12.6243 6.01349 12.712 6.07179 12.7858 6.14545C12.8596 6.21911 12.9181 6.30667 12.9579 6.40308C12.9977 6.49948 13.018 6.60282 13.0177 6.70711C13.0153 6.91913 12.9299 7.12178 12.7798 7.27149C12.6296 7.4212 12.4267 7.50603 12.2147 7.50773V7.50539Z" fill="#273586"/>
</svg>
