<svg width="20" height="21" viewBox="0 0 20 21" fill="none" xmlns="http://www.w3.org/2000/svg">
<path d="M8.0197 17.9613C11.7693 17.9613 14.8089 14.9216 14.8089 11.172C14.8089 7.42245 11.7693 4.38281 8.0197 4.38281C4.27011 4.38281 1.23047 7.42245 1.23047 11.172C1.23047 14.9216 4.27011 17.9613 8.0197 17.9613Z" fill="#E7F8F0"/>
<path d="M8.09597 16.4195L8.00986 16.2728C6.69447 14.0316 3.19901 9.27554 3.1637 9.22778L3.11328 9.15928L4.30417 7.98235L8.07386 10.6146C10.4474 7.53466 12.6617 5.4192 14.1061 4.18385C15.6861 2.83251 16.7146 2.21039 16.725 2.20443L16.7484 2.19043H18.7684L18.5755 2.36228C13.6128 6.78251 8.23382 16.1773 8.18024 16.2717L8.09597 16.4195Z" fill="#12B76A"/>
</svg>
