<svg xmlns="http://www.w3.org/2000/svg" width="16" height="17" viewBox="0 0 16 17" fill="none">
    <path
        d="M9.33716 10.0524C8.93909 10.3178 8.47672 10.458 8 10.458C7.52331 10.458 7.06094 10.3178 6.66288 10.0524L0.106531 5.68136C0.0701562 5.65711 0.0347187 5.63183 0 5.60583V12.7682C0 13.5894 0.666406 14.2411 1.47291 14.2411H14.5271C15.3482 14.2411 16 13.5747 16 12.7682V5.60579C15.9652 5.63186 15.9297 5.6572 15.8932 5.68148L9.33716 10.0524Z"
        fill="white" />
    <path
        d="M0.626562 4.90131L7.18291 9.27238C7.43109 9.43784 7.71553 9.52056 7.99997 9.52056C8.28444 9.52056 8.56891 9.43781 8.81709 9.27238L15.3734 4.90131C15.7658 4.63991 16 4.20241 16 3.73022C16 2.91831 15.3395 2.25781 14.5276 2.25781H1.47241C0.660531 2.25784 0 2.91834 0 3.731C0 4.20241 0.23425 4.63991 0.626562 4.90131Z"
        fill="white" />
</svg>