<svg width="24" height="24" viewBox="0 0 24 24" fill="none" xmlns="http://www.w3.org/2000/svg">
<path d="M12 24C18.6274 24 24 18.6274 24 12C24 5.37258 18.6274 0 12 0C5.37258 0 0 5.37258 0 12C0 18.6274 5.37258 24 12 24Z" fill="#1D71F2"/>
<path d="M9.95244 12.3379C9.90363 12.3379 8.82979 12.3379 8.34168 12.3379C8.08135 12.3379 8 12.2403 8 11.9962C8 11.3454 8 10.6783 8 10.0275C8 9.76721 8.09762 9.68586 8.34168 9.68586H9.95244C9.95244 9.63705 9.95244 8.69337 9.95244 8.25407C9.95244 7.60325 10.0663 6.98498 10.3917 6.41552C10.7334 5.82979 11.2215 5.4393 11.8398 5.21151C12.2466 5.06508 12.6533 5 13.0926 5H14.6871C14.9149 5 15.0125 5.09762 15.0125 5.32541V7.18023C15.0125 7.40801 14.9149 7.50563 14.6871 7.50563C14.2478 7.50563 13.8085 7.50563 13.3692 7.5219C12.9299 7.5219 12.7021 7.73342 12.7021 8.18899C12.6859 8.6771 12.7021 9.14894 12.7021 9.65332H14.5895C14.8498 9.65332 14.9474 9.75094 14.9474 10.0113V11.98C14.9474 12.2403 14.8661 12.3217 14.5895 12.3217C14.0038 12.3217 12.7509 12.3217 12.7021 12.3217V17.6258C12.7021 17.9024 12.6208 18 12.3279 18C11.6446 18 10.9775 18 10.2941 18C10.0501 18 9.95244 17.9024 9.95244 17.6583C9.95244 15.9499 9.95244 12.3867 9.95244 12.3379Z" fill="white"/>
</svg>
