<svg width="24" height="25" viewBox="0 0 24 25" fill="none" xmlns="http://www.w3.org/2000/svg">
<path d="M12 24.25C18.6274 24.25 24 18.8774 24 12.25C24 5.62258 18.6274 0.25 12 0.25C5.37258 0.25 0 5.62258 0 12.25C0 18.8774 5.37258 24.25 12 24.25Z" fill="white"/>
<path d="M9.95244 12.5879C9.90363 12.5879 8.82979 12.5879 8.34168 12.5879C8.08135 12.5879 8 12.4903 8 12.2462C8 11.5954 8 10.9283 8 10.2775C8 10.0172 8.09762 9.93586 8.34168 9.93586H9.95244C9.95244 9.88705 9.95244 8.94337 9.95244 8.50407C9.95244 7.85325 10.0663 7.23498 10.3917 6.66552C10.7334 6.07979 11.2215 5.6893 11.8398 5.46151C12.2466 5.31508 12.6533 5.25 13.0926 5.25H14.6871C14.9149 5.25 15.0125 5.34762 15.0125 5.57541V7.43023C15.0125 7.65801 14.9149 7.75563 14.6871 7.75563C14.2478 7.75563 13.8085 7.75563 13.3692 7.7719C12.9299 7.7719 12.7021 7.98342 12.7021 8.43899C12.6859 8.9271 12.7021 9.39894 12.7021 9.90332H14.5895C14.8498 9.90332 14.9474 10.0009 14.9474 10.2613V12.23C14.9474 12.4903 14.8661 12.5717 14.5895 12.5717C14.0038 12.5717 12.7509 12.5717 12.7021 12.5717V17.8758C12.7021 18.1524 12.6208 18.25 12.3279 18.25C11.6446 18.25 10.9775 18.25 10.2941 18.25C10.0501 18.25 9.95244 18.1524 9.95244 17.9083C9.95244 16.1999 9.95244 12.6367 9.95244 12.5879Z" fill="#1D71F2"/>
</svg>
