<svg width="16" height="16" viewBox="0 0 16 16" fill="none" xmlns="http://www.w3.org/2000/svg">
<path d="M7.99853 0L1.07031 4V12L7.99853 16L14.9268 12V4L7.99853 0Z" fill="#82D2FF"/>
<path d="M7.99853 8V0L1.07031 4L7.99853 8Z" fill="#08B7FC"/>
<path d="M1.07031 4V12L7.99853 8L1.07031 4Z" fill="#006DFF"/>
<path d="M14.9282 4L8 8L14.9282 12V4Z" fill="#08B7FC"/>
<path d="M7.99853 8L1.07031 12L7.99853 16V8Z" fill="#0050C0"/>
<path d="M8 16L14.9282 12L8 8V16Z" fill="#006DFF"/>
<path d="M11.9099 10.2577V5.74282L7.99987 3.48535L4.08984 5.74282V10.2577L7.99987 12.5152L11.9099 10.2577Z" fill="#82D2FF"/>
<path d="M11.91 10.2577V5.74282L8 3.48535V12.5152L11.91 10.2577Z" fill="#55CBFF"/>
</svg>
