<svg width="24" height="24" viewBox="0 0 24 24" fill="none" xmlns="http://www.w3.org/2000/svg">
<mask id="mask0_6_1062" style="mask-type:luminance" maskUnits="userSpaceOnUse" x="0" y="0" width="24" height="24">
<path d="M24 0H0V24H24V0Z" fill="white"/>
</mask>
<g mask="url(#mask0_6_1062)">
<path d="M17.9701 6.01011C17.1001 6.01011 16.2401 6.19012 15.4401 6.55012C14.6501 6.91012 13.94 7.44012 13.38 8.11012L12.49 9.13014L14.4701 11.4201L15.64 10.0701C15.93 9.73011 16.2801 9.47013 16.6901 9.28013C17.0901 9.10013 17.5301 9.00011 17.9701 9.01011C18.3701 9.01011 18.76 9.08013 19.13 9.22013C19.5 9.37013 19.83 9.59012 20.11 9.86012C20.39 10.1401 20.62 10.4701 20.77 10.8301C20.92 11.2001 21 11.5901 21 11.9801C21 12.3701 20.92 12.7701 20.77 13.1301C20.62 13.5001 20.39 13.8301 20.11 14.1001C19.83 14.3801 19.49 14.6001 19.13 14.7401C18.76 14.8901 18.3701 14.9601 17.9701 14.9501C17.5301 14.9501 17.0901 14.8601 16.6901 14.6801C16.2901 14.5001 15.93 14.2301 15.65 13.9001C11.31 8.88013 13.37 11.2801 10.61 8.08012C10.04 7.42012 9.34005 6.89013 8.55005 6.53013C7.76005 6.17013 6.90002 5.98012 6.02002 5.99012C4.43002 5.99012 2.91004 6.62012 1.79004 7.74012C0.670039 8.86012 0.0400391 10.3801 0.0400391 11.9701C0.0400391 13.5601 0.670039 15.0801 1.79004 16.2001C2.91004 17.3201 4.43002 17.9501 6.02002 17.9501C6.89002 17.9501 7.75005 17.7701 8.55005 17.4101C9.34005 17.0501 10.05 16.5201 10.61 15.8501L11.5 14.8301L9.52002 12.5401L8.3501 13.8901C8.0601 14.2301 7.71005 14.4901 7.30005 14.6801C6.90005 14.8601 6.46002 14.9601 6.02002 14.9501C5.62002 14.9501 5.22999 14.8801 4.85999 14.7401C4.48999 14.5901 4.16001 14.3701 3.88 14.1001C3.6 13.8201 3.37009 13.4901 3.22009 13.1301C3.07009 12.7601 2.98999 12.3701 2.98999 11.9801C2.98999 11.5901 3.07009 11.1901 3.22009 10.8301C3.37009 10.4601 3.6 10.1301 3.88 9.86012C4.16001 9.58012 4.49999 9.36013 4.85999 9.22013C5.22999 9.07013 5.62002 9.00011 6.02002 9.01011C6.46002 9.01011 6.90005 9.10013 7.30005 9.28013C7.70005 9.46013 8.06009 9.73013 8.34009 10.0601C12.6801 15.0801 10.62 12.6801 13.38 15.8801C14.03 16.6501 14.8701 17.2501 15.8101 17.6201C16.7501 17.9901 17.77 18.1101 18.78 17.9801C19.78 17.8501 20.74 17.4601 21.55 16.8601C22.37 16.2601 23.0201 15.4701 23.4401 14.5501C23.8701 13.6301 24.05 12.6201 23.99 11.6101C23.92 10.6001 23.6001 9.63012 23.0601 8.77012C22.5101 7.92012 21.76 7.22011 20.88 6.73011C19.99 6.25011 19 5.99013 17.99 6.00013L17.9701 6.01011Z" fill="#80091A"/>
</g>
</svg>
