<svg xmlns="http://www.w3.org/2000/svg" width="16" height="17" viewBox="0 0 16 17" fill="none">
    <g clip-path="url(#clip0_4024_3311)">
        <path
            d="M9.76216 6.48573C9.57263 6.29508 9.36248 6.12608 9.13562 5.98182C8.53473 5.59705 7.83616 5.39258 7.12264 5.39258C6.13228 5.39074 5.18217 5.78423 4.48311 6.48573L1.09172 9.87978C0.393844 10.579 0.00160222 11.5264 0.000977335 12.5142C-0.000334929 14.5757 1.66974 16.248 3.73124 16.2493C4.72007 16.2527 5.6693 15.8611 6.36812 15.1615L9.16761 12.362C9.21848 12.3116 9.24688 12.2428 9.24647 12.1711C9.24563 12.0239 9.12556 11.9052 8.9783 11.9061H8.87167C8.28677 11.9081 7.70709 11.7958 7.16532 11.5755C7.06549 11.5344 6.95076 11.5576 6.87471 11.6341L4.86173 13.6498C4.23665 14.2748 3.22321 14.2748 2.59814 13.6498C1.97306 13.0247 1.97306 12.0112 2.59814 11.3862L6.00287 7.98412C6.62744 7.36032 7.63923 7.36032 8.26381 7.98412C8.68473 8.38027 9.3413 8.38027 9.76219 7.98412C9.94329 7.80287 10.0531 7.56248 10.0715 7.3069C10.0909 7.00148 9.97831 6.70238 9.76216 6.48573Z"
            fill="white" />
        <path
            d="M14.9055 1.34333C13.4477 -0.114442 11.0842 -0.114442 9.62647 1.34333L6.82962 4.13748C6.75282 4.21465 6.73067 4.33073 6.77363 4.43077C6.81609 4.5311 6.91533 4.59549 7.02424 4.5934H7.12288C7.70709 4.59234 8.28583 4.70554 8.82658 4.92668C8.9264 4.96777 9.04113 4.94459 9.11718 4.86804L11.1248 2.86305C11.7499 2.23798 12.7633 2.23798 13.3884 2.86305C14.0135 3.48813 14.0135 4.50157 13.3884 5.12665L10.8875 7.62485L10.8662 7.64885L9.99168 8.51804C9.36711 9.14183 8.35532 9.14183 7.73074 8.51804C7.30982 8.12189 6.65325 8.12189 6.23236 8.51804C6.05011 8.70066 5.94022 8.94315 5.92307 9.20057C5.90357 9.50598 6.01621 9.80509 6.23236 10.0218C6.54096 10.3317 6.90202 10.5844 7.29882 10.7683C7.35481 10.7949 7.4108 10.8163 7.46679 10.8403C7.52278 10.8643 7.58143 10.8829 7.63742 10.9043C7.69341 10.9256 7.75205 10.9443 7.80804 10.9603L7.96536 11.0029C8.07199 11.0296 8.17866 11.0509 8.28795 11.0695C8.41962 11.0891 8.55222 11.1016 8.68523 11.1069H8.87185H8.88785L9.04782 11.0882C9.10646 11.0856 9.1678 11.0722 9.23713 11.0722H9.32777L9.51173 11.0456L9.59706 11.0296L9.75169 10.9976H9.78103C10.4359 10.8331 11.034 10.494 11.5114 10.0164L14.9054 6.62238C16.3633 5.16461 16.3633 2.8011 14.9055 1.34333Z"
            fill="white" />
    </g>
    <defs>
        <clipPath id="clip0_4024_3311">
            <rect width="16" height="16" fill="white" transform="translate(0 0.25)" />
        </clipPath>
    </defs>
</svg>