<svg width="99" height="108" viewBox="0 0 99 108" fill="none" xmlns="http://www.w3.org/2000/svg">
<path fill-rule="evenodd" clip-rule="evenodd" d="M48.6766 10.8475C48.597 10.853 48.3106 10.8716 48.0402 10.8888C41.0208 11.3349 34.1665 14.4029 29.1791 19.3312C28.8441 19.6622 28.4442 20.0789 28.2903 20.2574C25.7211 23.2374 24.5406 27.1538 25.0313 31.0689C25.508 34.8713 27.4886 38.2585 30.5679 40.5376C31.5983 41.3002 32.7227 41.9213 33.8811 42.3678C34.3125 42.534 35.1979 42.823 35.3563 42.8492C35.4291 42.8613 35.4169 42.8529 35.3129 42.8196C34.0092 42.4012 33.4874 42.1935 32.5361 41.7141C31.2543 41.0684 30.1568 40.2747 29.093 39.2244C27.6421 37.792 26.5492 36.1055 25.8295 34.1883C25.6453 33.6975 25.4609 33.1073 25.4054 32.8311L25.3671 32.64L25.495 32.4747C25.6742 32.243 27.055 30.8829 31.5237 26.5362C33.6555 24.4625 35.7254 22.4468 36.1236 22.0568C36.5217 21.6667 36.857 21.3476 36.8687 21.3476C36.8805 21.3476 36.8866 21.8383 36.8825 22.4381L36.8749 23.5286L36.5856 23.6475C33.3238 24.9883 31.7947 28.7361 33.1947 31.9584C33.8615 33.493 35.0892 34.6863 36.6435 35.3104L36.8749 35.4033L36.8659 39.2927C36.861 41.4318 36.8675 43.1822 36.8804 43.1823C36.8933 43.1824 37.0665 43.2016 37.2654 43.2249C37.4643 43.2482 37.679 43.2653 37.7427 43.2629C37.8491 43.259 37.8509 43.2577 37.7644 43.2471L37.6704 43.2356V35.6296L37.7933 35.6482C38.2627 35.7192 38.6678 35.7523 39.0299 35.7492L39.4493 35.7456L39.4567 39.4996C39.4638 43.0525 39.4615 43.2555 39.4134 43.291C39.3709 43.3223 39.4219 43.3256 39.7241 43.3108C41.2806 43.2349 42.9005 42.8955 44.2075 42.3714L44.4534 42.2729L44.4823 32.4792L44.5656 32.3229C44.6964 32.0773 44.8903 31.5814 44.9873 31.2443C45.3522 29.9763 45.326 28.6896 44.91 27.452C44.2001 25.3398 42.3877 23.7418 40.2077 23.3061C39.4919 23.163 38.7058 23.1433 38.007 23.2508C37.8366 23.277 37.691 23.2924 37.6834 23.2849C37.6758 23.2774 37.6731 22.8068 37.6772 22.2392L37.6848 21.2071L37.9452 21.3663C38.3396 21.6076 40.2849 22.7605 40.8034 23.0603L41.2609 23.3248L41.4398 23.1591C41.811 22.8156 45.0918 19.6387 47.3749 17.4121L49.7468 15.0988L49.7645 16.1441C49.7742 16.719 49.784 18.7777 49.7862 20.7189C49.7884 22.6601 49.7988 25.2006 49.8094 26.3645L49.8285 28.4806L50.6724 28.974L50.6796 26.797C50.7051 19.1189 50.7347 15.0588 50.7653 15.0285C50.7894 15.0047 51.06 15.1522 51.8054 15.5954C53.8728 16.8245 66.1056 24.1442 70.0815 26.5312C71.2943 27.2592 71.7352 27.538 71.7491 27.5852C71.7739 27.6699 71.7793 37.8663 71.7545 37.8663C71.744 37.8663 71.6116 37.7744 71.4603 37.6621C71.309 37.5497 70.9467 37.2981 70.6551 37.103L70.1249 36.7482L70.1238 28.4781L69.0035 27.809C65.9429 25.9811 65.2015 25.5452 65.1836 25.5628C65.1465 25.5995 65.1265 27.4383 65.1237 31.0819L65.1208 34.7432L65.4514 34.8204C65.8427 34.9117 67.077 35.3167 67.6005 35.5255C69.1417 36.1401 70.9166 37.213 72.222 38.319C72.5781 38.6207 73.7848 39.8072 74.1306 40.1955C74.8212 40.9712 75.6421 42.1644 76.2404 43.262C77.2219 45.0628 77.9303 47.3113 78.1504 49.3243C78.1751 49.551 78.2026 49.7435 78.2113 49.7521C78.3117 49.8513 78.9294 47.6731 79.2495 46.0913C79.586 44.4288 79.7344 43.0857 79.7851 41.2428C79.8299 39.6147 79.7632 37.9881 79.5964 36.6374C79.2581 33.898 78.5394 31.2476 77.4383 28.6782C77.1588 28.0261 76.4817 26.6528 76.1278 26.0203C74.2349 22.6379 71.696 19.6665 68.6063 17.2176C64.2558 13.7694 58.9808 11.6065 53.4493 11.0029C52.2703 10.8742 51.8678 10.854 50.3253 10.8457C49.498 10.8412 48.7561 10.842 48.6766 10.8475ZM52.3835 18.3671C52.3731 18.6282 52.3646 21.3509 52.3646 24.4176V29.9933L54.7985 31.4506C56.1373 32.2521 57.2632 32.9244 57.3006 32.9445L57.3687 32.9811V20.8412L56.7685 20.4842C56.4384 20.2879 55.3483 19.6387 54.346 19.0417C53.3437 18.4447 52.4964 17.9418 52.4631 17.9243C52.403 17.8926 52.4023 17.8965 52.3835 18.3671ZM58.7733 21.812C58.7649 21.8631 58.7521 24.6764 58.745 28.0637C58.738 31.451 58.7236 34.2683 58.7132 34.3242C58.6913 34.4419 58.6237 34.4368 59.2694 34.3663C59.4796 34.3434 60.0291 34.3093 60.4906 34.2906C61.6878 34.2421 62.4118 34.2841 63.7863 34.4815C64.0626 34.5212 64.3034 34.5488 64.3214 34.5428C64.3395 34.5368 64.2436 34.5158 64.1084 34.4961C63.9731 34.4764 63.8397 34.4542 63.8119 34.4466C63.7639 34.4337 63.7613 34.1763 63.7613 29.5517V24.6703L62.8863 24.1474C61.15 23.1096 58.9435 21.7987 58.8669 21.7593C58.7904 21.7199 58.7884 21.721 58.7733 21.812ZM45.8721 28.3572C45.8617 28.5494 45.8572 31.6079 45.862 35.1537L45.8708 41.6006L46.1456 41.4449C47.088 40.9109 47.9077 40.2813 49.1031 39.173C50.0857 38.262 50.5018 37.9158 51.2211 37.4108C52.9234 36.2157 54.8209 35.3443 56.9565 34.777C57.0878 34.7422 57.1943 34.706 57.1932 34.6967C57.1922 34.6874 57.063 34.6185 56.9062 34.5437C56.6413 34.4174 55.8854 33.9733 53.2535 32.3982C52.6845 32.0576 52.2126 31.779 52.205 31.779C52.1973 31.779 52.1909 32.8946 52.1907 34.2582L52.1904 36.7375L51.904 36.9168C51.7464 37.0154 51.4244 37.2313 51.1885 37.3965C50.821 37.6539 50.7566 37.6897 50.7391 37.6459C50.7278 37.6178 50.7082 36.0919 50.6955 34.2551L50.6724 30.9153L49.3418 30.1007C47.6493 29.0645 46.0335 28.082 45.9532 28.04C45.8916 28.0079 45.8908 28.0108 45.8721 28.3572ZM22.2098 29.2687C22.0937 29.5244 21.7969 30.3351 21.5891 30.9645C20.9352 32.945 20.5034 34.9631 20.2593 37.1804C20.11 38.5367 20.1019 41.7344 20.2443 43.1249C20.7073 47.6462 22.076 51.739 24.428 55.6354C26.4036 58.9082 29.329 62.0546 32.5567 64.3779C37.0829 67.6359 42.4794 69.5793 47.9823 69.933C48.753 69.9825 51.2014 70.0015 51.9018 69.9634C56.7243 69.7007 61.4051 68.2752 65.598 65.7923C68.4601 64.0976 71.319 61.686 72.8013 59.7163C74.3213 57.6966 75.2628 55.3453 75.5654 52.8132C75.6429 52.1647 75.6716 50.8678 75.6229 50.2104C75.4163 47.4217 74.4429 44.8046 72.8006 42.6224C72.1106 41.7056 70.7777 40.3891 69.8001 39.6588C68.6752 38.8184 67.1668 38.0433 65.7609 37.5833C64.9811 37.328 63.9239 37.0887 63.0237 36.9637C62.5871 36.903 60.6885 36.8758 59.9828 36.9201C58.3345 37.0235 56.4278 37.5467 54.8233 38.3357C53.4545 39.0089 52.3296 39.8071 51.034 41.0247C50.1472 41.858 49.7609 42.1866 49.096 42.6726C47.0411 44.1747 44.7766 45.1578 42.2695 45.6362C41.1711 45.8457 40.5599 45.8962 39.1166 45.8962C37.677 45.8962 37.093 45.8477 35.9927 45.6367C31.488 44.7728 27.609 42.2141 25.1026 38.4531C23.8477 36.5702 22.9833 34.4236 22.573 32.172C22.4389 31.4354 22.3672 30.7272 22.3415 29.8845C22.3287 29.4634 22.3119 29.1127 22.3043 29.1051C22.2966 29.0976 22.2541 29.1712 22.2098 29.2687ZM58.1135 34.5129C58.1334 34.5209 58.166 34.5209 58.1859 34.5129C58.2058 34.505 58.1895 34.4985 58.1497 34.4985C58.1099 34.4985 58.0937 34.505 58.1135 34.5129ZM57.6526 34.5993C57.6734 34.6075 57.6984 34.6065 57.708 34.597C57.7176 34.5875 57.7005 34.5808 57.67 34.582C57.6363 34.5834 57.6295 34.5901 57.6526 34.5993ZM64.5712 34.6041C64.595 34.6181 64.6666 34.6379 64.7303 34.6481C64.803 34.6598 64.8299 34.6572 64.8026 34.6412C64.7787 34.6271 64.7071 34.6073 64.6435 34.5971C64.5708 34.5855 64.5439 34.588 64.5712 34.6041ZM45.415 41.8013C45.2439 41.8898 45.1091 41.9675 45.1156 41.9738C45.128 41.9861 45.4367 41.8368 45.6538 41.7134C45.8905 41.579 45.7316 41.6374 45.415 41.8013ZM44.6704 42.1532C44.6147 42.1833 44.5795 42.2085 44.5923 42.2091C44.6229 42.2107 44.7861 42.1269 44.7861 42.1096C44.7861 42.0909 44.7844 42.0915 44.6704 42.1532ZM35.6112 42.9158C35.6321 42.924 35.657 42.923 35.6667 42.9135C35.6763 42.904 35.6592 42.8973 35.6287 42.8985C35.595 42.8999 35.5881 42.9066 35.6112 42.9158ZM35.877 42.982C35.9167 42.9946 35.9753 43.0052 36.0071 43.0057L36.065 43.0065L36.0071 42.982C35.9753 42.9685 35.9167 42.9578 35.877 42.9583L35.8047 42.9591L35.877 42.982ZM36.2675 43.0677C36.3152 43.0797 36.3868 43.0898 36.4266 43.0901L36.4989 43.0906L36.4266 43.0677C36.3868 43.0551 36.3152 43.0451 36.2675 43.0454L36.1807 43.0459L36.2675 43.0677ZM38.2561 43.3168C38.2999 43.3234 38.3714 43.3234 38.4152 43.3168C38.459 43.3103 38.4231 43.3049 38.3356 43.3049C38.2481 43.3049 38.2123 43.3103 38.2561 43.3168ZM62.9947 43.528C60.8371 43.7596 58.9638 45.0321 57.9924 46.9259C57.6967 47.5024 57.5245 48.0082 57.3939 48.6835C57.3084 49.1255 57.2867 50.0884 57.3513 50.5739C57.5026 51.7111 57.9684 52.7904 58.7003 53.6997C58.9447 54.0034 59.5056 54.5432 59.8171 54.7745C60.6788 55.4144 61.6508 55.8128 62.7489 55.9761C63.2027 56.0436 64.0635 56.0434 64.5073 55.9758C66.6159 55.6544 68.3678 54.3958 69.2878 52.5417C70.1642 50.7754 70.1639 48.7506 69.2869 46.9973C68.3572 45.1389 66.6128 43.8781 64.5423 43.5682C64.1666 43.512 63.3432 43.4905 62.9947 43.528ZM10.7695 97.3679L15.6941 97.3671C18.4027 97.3665 20.8855 97.3542 21.2117 97.3395C22.7036 97.2726 23.9719 96.93 24.8321 96.3615C25.7597 95.7485 26.3963 94.6394 26.5675 93.3383C26.6208 92.9331 26.6119 91.7105 26.553 91.3418C26.4663 90.7994 26.2276 90.1955 25.9187 89.7373C25.6962 89.4072 25.1654 88.9087 24.7472 88.637C24.5537 88.5113 24.3949 88.4015 24.3944 88.3931C24.3939 88.3847 24.4358 88.3538 24.4875 88.3245C24.7835 88.1564 25.4715 87.5094 25.7525 87.135C26.0595 86.7259 26.3218 86.1529 26.4647 85.5791C26.6181 84.9637 26.6247 83.771 26.4784 83.1356C26.2048 81.947 25.4792 80.9415 24.4196 80.2824C23.8839 79.9492 23.2911 79.7652 22.3386 79.6363C21.5785 79.5335 21.2953 79.528 16.0123 79.5148L10.7695 79.5017V97.3679ZM33.5629 97.3679H37.8439V90.6229L41.5881 90.6376L45.349 97.3679H47.7607C49.773 97.3679 50.1699 97.3616 50.1574 97.3294C50.1332 97.267 47.664 93.1038 46.327 90.8713C46.0652 90.4339 45.8585 90.0686 45.8678 90.0594C45.8771 90.0502 46.0167 89.9935 46.178 89.9334C47.2499 89.5338 48.0296 88.8298 48.5319 87.8082C48.9334 86.9916 49.1069 86.1318 49.1056 84.9646C49.1049 84.2649 49.0733 83.9099 48.9641 83.3712C48.5073 81.1181 46.8711 79.8189 44.1642 79.5602C43.9215 79.5369 42.2736 79.5232 38.69 79.5145L33.5629 79.502V97.3679ZM51.5547 97.3679H56.0381V79.506H51.5547V97.3679ZM65.6559 79.5361C64.6491 79.5571 64.298 79.5954 63.5299 79.7678C60.6163 80.422 58.8509 82.2937 58.1805 85.4396C57.7912 87.2664 57.7672 89.6524 58.1205 91.3949C58.2856 92.209 58.4924 92.8185 58.8428 93.5241C59.2071 94.2573 59.6044 94.8055 60.1896 95.3817C61.2711 96.4468 62.4536 97.0218 64.0071 97.2379C64.7412 97.3401 65.0067 97.3467 68.8449 97.3595L72.6704 97.3722V93.7183L69.2065 93.701C67.0281 93.6902 65.6374 93.6723 65.4589 93.6527C64.8057 93.5812 64.1546 93.3476 63.7451 93.0378C63.03 92.4968 62.6425 91.5232 62.5178 89.9547C62.48 89.4792 62.4803 88.1512 62.5183 87.6368C62.605 86.4639 62.8019 85.547 63.1078 84.8929C63.3409 84.3945 63.7346 83.9175 64.1309 83.6534C64.3728 83.4923 64.8048 83.2896 65.0195 83.2365C65.3917 83.1444 65.835 83.1314 69.0113 83.1188C70.7613 83.1119 72.3005 83.0988 72.4317 83.0897L72.6704 83.0733V79.506L69.6259 79.5115C67.9515 79.5144 66.165 79.5255 65.6559 79.5361ZM74.6373 97.3679H78.9183V90.166H84.9059V97.3679H89.158V79.506H84.9059V86.4793H78.9183V79.506H74.6373V97.3679ZM37.8632 83.2404C37.8526 83.2508 37.8439 84.0882 37.8439 85.1013V86.9431L39.8181 86.924C42.762 86.8955 43.2244 86.8685 43.7405 86.6951C44.2087 86.5377 44.4554 86.3421 44.6396 85.9821C44.7636 85.7397 44.8139 85.4714 44.8143 85.0504C44.8148 84.588 44.7813 84.3963 44.6564 84.146C44.3273 83.4863 43.8216 83.3069 42.1295 83.2495C41.2184 83.2186 37.8924 83.2115 37.8632 83.2404ZM15.0216 86.5651L17.5309 86.5648C19.0239 86.5646 20.1808 86.5524 20.3873 86.5347C21.0205 86.4805 21.2915 86.3764 21.6045 86.0672C21.9602 85.7158 22.0431 85.4317 22.0096 84.6791C21.9935 84.3167 21.9865 84.2811 21.8936 84.0879C21.7259 83.739 21.4718 83.5171 21.096 83.3916C20.83 83.3027 20.12 83.2818 17.314 83.2799L15.0216 83.2785V86.5651ZM27.9803 90.2518H31.5092V86.6222H27.9803V90.2518ZM15.0216 93.6527L17.473 93.6524C19.9109 93.6521 20.7184 93.6303 20.9947 93.557C21.7148 93.366 22.055 92.8625 22.06 91.9808C22.0624 91.5554 22.0204 91.3532 21.864 91.0377C21.7328 90.7729 21.566 90.6095 21.3032 90.4884C20.9066 90.3057 20.922 90.3068 18.5361 90.2801C17.3429 90.2668 16.064 90.255 15.6941 90.2538L15.0216 90.2518V93.6527Z" fill="white"/>
<path d="M45.5918 29.6668C45.5918 33.2234 42.6964 36.1067 39.1248 36.1067C35.5531 36.1067 32.6578 33.2234 32.6578 29.6668C32.6578 26.1102 35.5531 23.227 39.1248 23.227C42.6964 23.227 45.5918 26.1102 45.5918 29.6668Z" fill="#D9D9D9"/>
</svg>
