<svg width="24" height="24" viewBox="0 0 24 24" fill="none" xmlns="http://www.w3.org/2000/svg">
<path fill-rule="evenodd" clip-rule="evenodd" d="M3.6001 17.9998C3.6001 17.337 4.13735 16.7998 4.8001 16.7998H19.2001C19.8629 16.7998 20.4001 17.337 20.4001 17.9998C20.4001 18.6626 19.8629 19.1998 19.2001 19.1998H4.8001C4.13735 19.1998 3.6001 18.6626 3.6001 17.9998ZM3.6001 5.9998C3.6001 5.33706 4.13735 4.7998 4.8001 4.7998H19.2001C19.8629 4.7998 20.4001 5.33706 20.4001 5.9998C20.4001 6.66254 19.8629 7.1998 19.2001 7.1998H4.8001C4.13735 7.1998 3.6001 6.66254 3.6001 5.9998ZM3.6001 11.9998C3.6001 11.3371 4.13735 10.7998 4.8001 10.7998H12.0001C12.6629 10.7998 13.2001 11.3371 13.2001 11.9998C13.2001 12.6626 12.6629 13.1998 12.0001 13.1998H4.8001C4.13735 13.1998 3.6001 12.6626 3.6001 11.9998Z" fill="url(#paint0_linear_2001_204)"/>
<defs>
<linearGradient id="paint0_linear_2001_204" x1="3.6001" y1="11.9998" x2="20.4001" y2="11.9998" gradientUnits="userSpaceOnUse">
<stop stop-color="#151D4A"/>
<stop offset="1" stop-color="#273586"/>
</linearGradient>
</defs>
</svg>
