<svg width="25" height="25" viewBox="0 0 25 25" fill="none" xmlns="http://www.w3.org/2000/svg">
<path d="M16.4479 0.848907L3.88794 22.6035C3.61732 23.0722 3.77791 23.6715 4.24664 23.9421L4.25531 23.9471C4.72403 24.2178 5.32339 24.0572 5.59401 23.5885L18.154 1.83391C18.4246 1.36518 18.2641 0.765728 17.7953 0.495108L17.7867 0.490104C17.3179 0.219484 16.7186 0.38018 16.4479 0.848907Z" fill="#80091A"/>
<path fill-rule="evenodd" clip-rule="evenodd" d="M16.92 3.38525H2.78003C2.22003 3.38525 1.66995 3.55524 1.19995 3.87524L10.96 11.1852C11.26 11.4152 11.63 11.5352 12.01 11.5352C12.08 11.5352 12.15 11.5353 12.22 11.5253L16.92 3.38525ZM11.2 13.2953C10.72 13.1853 10.26 12.9753 9.84998 12.6753L0.109985 5.37524C0.0399854 5.63524 0 5.89525 0 6.16525V18.4753C0 19.2052 0.290059 19.9152 0.810059 20.4352C1.33006 20.9552 2.03002 21.2453 2.77002 21.2453H6.60999L11.2 13.3053V13.2953ZM8.89001 21.2353L13.65 12.9853C13.83 12.8953 14 12.7853 14.16 12.6653L23.9 5.36526C23.97 5.62526 24.01 5.88524 24.01 6.15524V18.4652C24.01 19.1952 23.72 19.9053 23.2 20.4253C22.68 20.9453 21.98 21.2353 21.24 21.2353H8.89001ZM15.9301 9.03525L19.1901 3.38525H21.24C21.8 3.38525 22.3499 3.55524 22.8199 3.87524L15.9401 9.03525H15.9301Z" fill="#80091A"/>
</svg>
