<svg width="24" height="24" viewBox="0 0 24 24" fill="none" xmlns="http://www.w3.org/2000/svg">
<g clip-path="url(#clip0_2001_263)">
<path d="M21 6C21 5.40326 20.7629 4.83097 20.341 4.40901C19.919 3.98705 19.3467 3.75 18.75 3.75H5.25C4.65326 3.75 4.08097 3.98705 3.65901 4.40901C3.23705 4.83097 3 5.40326 3 6V6.75H21V6Z" fill="#273586"/>
<path d="M16.5 0.75H7.5C7.03579 0.751305 6.58335 0.896159 6.2047 1.1647C5.82605 1.43325 5.53973 1.81234 5.385 2.25H18.615C18.4603 1.81234 18.1739 1.43325 17.7953 1.1647C17.4166 0.896159 16.9642 0.751305 16.5 0.75Z" fill="#273586"/>
<path d="M21 8.25H3C2.40326 8.25 1.83097 8.48705 1.40901 8.90901C0.987053 9.33097 0.75 9.90326 0.75 10.5V21C0.75 21.5967 0.987053 22.169 1.40901 22.591C1.83097 23.0129 2.40326 23.25 3 23.25H21C21.5967 23.25 22.169 23.0129 22.591 22.591C23.0129 22.169 23.25 21.5967 23.25 21V10.5C23.25 9.90326 23.0129 9.33097 22.591 8.90901C22.169 8.48705 21.5967 8.25 21 8.25ZM15.75 17.1L11.4375 19.8C11.1956 19.9495 10.9182 20.0318 10.6339 20.0383C10.3496 20.0447 10.0687 19.9752 9.82023 19.8368C9.57178 19.6985 9.36477 19.4963 9.22057 19.2512C9.07638 19.006 9.00024 18.7269 9 18.4425V13.0575C9.00024 12.7731 9.07638 12.494 9.22057 12.2488C9.36477 12.0037 9.57178 11.8015 9.82023 11.6632C10.0687 11.5248 10.3496 11.4553 10.6339 11.4617C10.9182 11.4682 11.1956 11.5505 11.4375 11.7L15.75 14.4C15.9794 14.5428 16.1687 14.7416 16.2999 14.9778C16.4311 15.214 16.5 15.4798 16.5 15.75C16.5 16.0202 16.4311 16.286 16.2999 16.5222C16.1687 16.7584 15.9794 16.9572 15.75 17.1Z" fill="#273586"/>
<path d="M14.955 15.6675L10.6425 12.975H10.5975C10.5805 12.9693 10.562 12.9693 10.545 12.975C10.53 12.9825 10.5176 12.9945 10.5096 13.0092C10.5016 13.024 10.4982 13.0408 10.5 13.0575V18.4425C10.5007 18.4589 10.5055 18.4749 10.514 18.4889C10.5224 18.503 10.5344 18.5147 10.5486 18.5229C10.5628 18.5312 10.5788 18.5357 10.5953 18.536C10.6117 18.5364 10.6279 18.5326 10.6425 18.525L14.955 15.8325C14.9689 15.8237 14.9804 15.8115 14.9884 15.7971C14.9964 15.7827 15.0005 15.7665 15.0005 15.75C15.0005 15.7335 14.9964 15.7173 14.9884 15.7029C14.9804 15.6885 14.9689 15.6763 14.955 15.6675Z" fill="#273586"/>
</g>
<defs>
<clipPath id="clip0_2001_263">
<rect width="24" height="24" fill="white"/>
</clipPath>
</defs>
</svg>
