<svg width="44" height="44" viewBox="0 0 44 44" fill="none" xmlns="http://www.w3.org/2000/svg">
<circle cx="22" cy="22" r="22" fill="#273586"/>
<path fill-rule="evenodd" clip-rule="evenodd" d="M19.9459 14.2893C19.1416 13.5321 19.1034 12.2664 19.8605 11.4621C20.6176 10.6579 21.8834 10.6196 22.6877 11.3768L32.0809 20.2195C32.7274 20.5509 33.1699 21.224 33.1699 22.0005C33.1699 22.7774 32.727 23.4508 32.0799 23.782L22.6877 32.6238C21.8834 33.3809 20.6176 33.3427 19.8605 32.5384C19.1034 31.7342 19.1416 30.4684 19.9459 29.7113L26.0122 24.0005H12.8354C11.7308 24.0005 10.8354 23.1051 10.8354 22.0005C10.8354 20.8959 11.7308 20.0005 12.8354 20.0005H26.0126L19.9459 14.2893Z" fill="white"/>
</svg>
