<svg width="1728" height="155" viewBox="0 0 1728 155" fill="none" xmlns="http://www.w3.org/2000/svg">
<path opacity="0.25" d="M0 8.25777C0 8.25777 156 33.6728 359.5 31.1313C556.797 28.6673 614.502 10.7189 862 1.19912C1186.5 -11.2825 1361.5 78.9323 1728 29.0975C1728.01 29.0964 1728 150.426 1728 150.426H0V8.25777Z" fill="#273586"/>
<path opacity="0.5" d="M0 71.1669C0 71.1669 109.54 99.4049 250 94.5488C448.259 87.6944 610.5 19.3354 862 19.3164C1033.5 19.3035 1591.5 108.768 1728 54.3793V151.443H0V71.1669Z" fill="#273586"/>
<path d="M0.000682831 124.025C0.000682831 124.025 109.541 150.23 250.001 145.374C448.259 138.519 518.786 59.0052 721.001 58.9624C814.015 58.9427 923.529 104.672 1065 107.233C1242.5 103.675 1284.5 75.2102 1413 82.3264C1555.99 90.245 1577 121.974 1728 88.9361L1728 155H0L0.000682831 124.025Z" fill="#273586"/>
</svg>
