<svg width="1728" height="163" viewBox="0 0 1728 163" fill="none" xmlns="http://www.w3.org/2000/svg">
<path d="M0 8.53786C0 8.53786 156 33.461 359.5 30.9687C556.797 28.5523 614.502 10.9514 862 1.61585C1186.5 -10.6242 1361.5 77.8444 1728 28.9742C1728.01 28.9731 1728 157.954 1728 157.954H0V8.53786Z" fill="#273586" fill-opacity="0.25"/>
<path d="M0 70.2283C0 70.2283 109.54 97.9197 250 93.1576C448.259 86.4359 610.5 19.4001 862 19.3815C1033.5 19.3688 1591.5 107.101 1728 53.7657V158.951H0V70.2283Z" fill="#273586" fill-opacity="0.5"/>
<path d="M0.000682831 122.064C0.000682831 122.064 109.541 147.762 250.001 143C448.259 136.278 518.786 58.3033 721.001 58.2613C814.015 58.242 923.529 103.086 1065 105.598C1242.5 102.108 1284.5 74.1946 1413 81.173C1555.99 88.9384 1577 120.053 1728 87.6548L1728 162.44H0L0.000682831 122.064Z" fill="#273586"/>
</svg>
