<svg width="24" height="24" viewBox="0 0 24 24" fill="none" xmlns="http://www.w3.org/2000/svg">
<path fill-rule="evenodd" clip-rule="evenodd" d="M6.17035 18.657C6.42844 18.211 6.91094 17.9107 7.46294 17.9107C8.01494 17.9107 8.49727 18.211 8.75554 18.657H21.6419C22.0539 18.657 22.3883 18.9914 22.3883 19.4031C22.3883 19.8151 22.0539 20.1495 21.6419 20.1495H8.75554C8.49727 20.5954 8.01494 20.8958 7.46294 20.8958C6.91094 20.8958 6.42844 20.5954 6.17035 20.1495H2.239C1.82706 20.1495 1.49268 19.8151 1.49268 19.4031C1.49268 18.9914 1.82706 18.657 2.239 18.657H6.17035ZM22.3883 5.22416C22.3883 3.98762 21.386 2.98535 20.1495 2.98535C16.5353 2.98535 7.34581 2.98535 3.73148 2.98535C2.49512 2.98535 1.49268 3.98762 1.49268 5.22416V14.1794C1.49268 15.4157 2.49512 16.4182 3.73148 16.4182H20.1495C21.386 16.4182 22.3883 15.4157 22.3883 14.1794V5.22416ZM13.8808 10.2987C14.0687 10.1578 14.1794 9.93657 14.1794 9.70177C14.1794 9.46678 14.0687 9.24559 13.8808 9.10463L10.8957 6.86583C10.6696 6.69622 10.3671 6.66899 10.1142 6.79544C9.86133 6.92189 9.70175 7.18016 9.70175 7.46296V11.9406C9.70175 12.2232 9.86133 12.4816 10.1142 12.6079C10.3671 12.7344 10.6696 12.7071 10.8957 12.5375L13.8808 10.2987Z" fill="url(#paint0_linear_2001_251)"/>
<defs>
<linearGradient id="paint0_linear_2001_251" x1="1.49268" y1="11.9406" x2="22.3883" y2="11.9406" gradientUnits="userSpaceOnUse">
<stop stop-color="#151D4A"/>
<stop offset="1" stop-color="#273586"/>
</linearGradient>
</defs>
</svg>
