<svg width="41" height="40" viewBox="0 0 41 40" fill="none" xmlns="http://www.w3.org/2000/svg">
<path fill-rule="evenodd" clip-rule="evenodd" d="M29.8925 22.8124C29.5323 25.0243 28.4827 27.0659 26.8933 28.6458C25.3039 30.2257 23.2561 31.2631 21.0421 31.61C18.8281 31.957 16.561 31.5956 14.5646 30.5776C12.5681 29.5596 10.9443 27.9369 9.92486 25.9412C8.9054 23.9455 8.54244 21.6787 8.88777 19.4644C9.2331 17.2502 10.2691 15.2016 11.8478 13.6111C13.4266 12.0206 15.4674 10.9695 17.679 10.6077C19.8907 10.246 22.1601 10.5921 24.1633 11.5967C24.2215 11.6259 24.2719 11.6685 24.3104 11.721C24.3489 11.7734 24.3744 11.8343 24.3848 11.8985C24.3953 11.9628 24.3903 12.0286 24.3704 12.0905C24.3504 12.1525 24.3161 12.2088 24.2702 12.2549L24.2712 12.2561L21.5808 14.9466C21.4435 15.0839 21.293 15.0836 21.133 15.0378C17.1319 13.8924 13.0821 16.8862 13.0821 21.1063C13.0821 21.935 13.2453 22.7556 13.5624 23.5213C13.8796 24.2869 14.3444 24.9826 14.9304 25.5685C15.5164 26.1545 16.212 26.6193 16.9777 26.9365C17.7433 27.2536 18.5639 27.4168 19.3926 27.4168C23.6087 27.4168 26.6273 23.3689 25.4491 19.3245C25.4286 19.2538 25.4275 19.1789 25.4458 19.1076C25.4642 19.0363 25.5013 18.9712 25.5534 18.9191L25.5523 18.9181L28.2428 16.2277C28.291 16.1796 28.3504 16.1442 28.4156 16.1246C28.4808 16.105 28.5499 16.1018 28.6166 16.1153C28.6834 16.1289 28.7457 16.1587 28.7982 16.2021C28.8506 16.2456 28.8915 16.3013 28.9172 16.3644C28.9194 16.3699 28.9215 16.3745 28.9241 16.38C29.9093 18.3709 30.2479 20.6198 29.8925 22.8124ZM26.3102 9.72454C26.4912 9.83392 26.6903 9.83704 26.8451 9.68227L29.3777 7.1497L29.3771 7.14915C29.4197 7.10624 29.4524 7.05448 29.4729 6.99753C29.4933 6.94059 29.501 6.87986 29.4953 6.81963C29.4897 6.75939 29.4709 6.70114 29.4403 6.64897C29.4096 6.59681 29.3679 6.55201 29.318 6.51774C25.9188 4.20488 21.818 3.15284 17.7252 3.5436C8.66508 4.39876 1.75 12.0106 1.75 21.1063C1.75 30.8499 9.64898 38.749 19.3926 38.749C28.4884 38.749 36.1002 31.8338 36.9551 22.7738C37.3448 18.6923 36.2999 14.6026 34 11.2084C33.822 10.9463 33.5258 10.9449 33.3495 11.1213L30.8166 13.6538L30.8173 13.6545C30.752 13.7198 30.7106 13.8052 30.6996 13.8969C30.6887 13.9886 30.7089 14.0813 30.757 14.1601C32.4556 16.9396 33.0765 20.2455 32.5019 23.4519C31.9274 26.6584 30.1973 29.543 27.6392 31.5598C25.081 33.5766 21.8723 34.5856 18.6203 34.396C15.3683 34.2063 12.2987 32.8311 9.99233 30.5306C7.68599 28.2301 6.303 25.1639 6.1051 21.9124C5.90719 18.6609 6.90811 15.4496 8.91841 12.8864C10.9287 10.3232 13.8089 8.5858 17.0139 8.00312C20.2189 7.42045 23.5263 8.03289 26.3102 9.72454ZM22.7386 19.6912C22.721 19.651 22.7161 19.6064 22.7245 19.5634C22.7329 19.5204 22.7541 19.4809 22.7855 19.4502L33.8789 8.35696C33.9037 8.33148 33.9344 8.31257 33.9683 8.30194C34.0022 8.29132 34.0382 8.28931 34.0731 8.2961L35.7239 8.59298C35.7892 8.60472 35.8563 8.6005 35.9195 8.58066C35.9828 8.56083 36.0403 8.52597 36.0872 8.47907L36.0883 8.48017L39.1293 5.43907C39.3296 5.23884 39.3047 4.81407 38.8715 4.73595L36.3871 4.28884C36.3428 4.28136 36.3019 4.26026 36.2701 4.22848C36.2384 4.1967 36.2173 4.15581 36.2098 4.11149L35.7558 1.58884C35.7423 1.51504 35.709 1.44632 35.6593 1.39011C35.6096 1.33389 35.5456 1.29231 35.474 1.26985C35.4024 1.2474 35.3261 1.24493 35.2532 1.2627C35.1803 1.28048 35.1137 1.31783 35.0605 1.37071L35.0594 1.36962L32.0185 4.41063C31.9679 4.46125 31.9313 4.52418 31.9123 4.59324C31.8934 4.66229 31.8927 4.73509 31.9105 4.80446L32.2031 6.42571C32.2099 6.46061 32.2079 6.49665 32.1973 6.53057C32.1867 6.5645 32.1678 6.59524 32.1423 6.62001L21.0487 17.7133C21.018 17.7446 20.9785 17.7659 20.9355 17.7743C20.8925 17.7827 20.8479 17.7777 20.8077 17.7602C20.0313 17.4317 19.1649 17.3835 18.3568 17.6236C17.5488 17.8638 16.8493 18.3775 16.3783 19.0766C15.9074 19.7758 15.6942 20.617 15.7752 21.4561C15.8563 22.2952 16.2266 23.08 16.8226 23.6761C17.4187 24.2722 18.2036 24.6425 19.0427 24.7236C19.8818 24.8046 20.7229 24.5914 21.4221 24.1204C22.1213 23.6494 22.635 22.95 22.8751 22.1419C23.1153 21.3339 23.067 20.4674 22.7386 19.691V19.6912Z" fill="white"/>
</svg>
