<svg width="16" height="16" viewBox="0 0 16 16" fill="none" xmlns="http://www.w3.org/2000/svg">
<g clip-path="url(#clip0_2001_212)">
<path d="M15.3538 12.1524C14.3255 11.2594 13.1214 10.6303 11.7698 10.2264C11.5004 10.1459 11.2076 10.2016 10.992 10.3821C10.4792 10.8113 9.98034 11.305 9.50627 11.9162C9.38202 12.0764 9.15612 12.1224 8.97927 12.0233C6.84166 10.8257 5.17407 9.15813 3.9765 7.02053C3.87741 6.84367 3.92338 6.61777 4.08357 6.49353C4.69477 6.01946 5.18851 5.5206 5.61775 5.00782C5.79819 4.79224 5.85387 4.49939 5.7734 4.23002C5.36954 2.8784 4.74045 1.67433 3.84737 0.646031C3.66881 0.440435 3.39062 0.354702 3.12702 0.423004C1.50234 0.843999 0.549595 2.4969 0.444329 4.27798C-0.252163 8.59232 7.4075 16.252 11.7218 15.5555C13.5029 15.4502 15.1558 14.4975 15.5768 12.8728C15.6451 12.6092 15.5594 12.331 15.3538 12.1524Z" fill="url(#paint0_linear_2001_212)"/>
</g>
<defs>
<linearGradient id="paint0_linear_2001_212" x1="0.399902" y1="7.9999" x2="15.5999" y2="7.9999" gradientUnits="userSpaceOnUse">
<stop stop-color="#151D4A"/>
<stop offset="1" stop-color="#273586"/>
</linearGradient>
<clipPath id="clip0_2001_212">
<rect width="16" height="16" fill="white"/>
</clipPath>
</defs>
</svg>
