<svg xmlns="http://www.w3.org/2000/svg" width="16" height="17" viewBox="0 0 16 17" fill="none">
    <g clip-path="url(#clip0_4024_3297)">
        <path
            d="M15.5477 11.9924L13.3149 9.75954C12.5174 8.96209 11.1618 9.2811 10.8428 10.3178C10.6036 11.0355 9.80611 11.4342 9.08841 11.2747C7.49352 10.876 5.34042 8.8026 4.9417 7.12797C4.70246 6.41024 5.18093 5.61279 5.89863 5.37359C6.93531 5.05461 7.25429 3.69895 6.45684 2.90151L4.224 0.668659C3.58604 0.110447 2.6291 0.110447 2.07089 0.668659L0.555746 2.18381C-0.959401 3.7787 0.715235 8.00516 4.46323 11.7532C8.21122 15.5011 12.4377 17.2556 14.0326 15.6606L15.5477 14.1455C16.106 13.5075 16.106 12.5506 15.5477 11.9924Z"
            fill="white" />
    </g>
    <defs>
        <clipPath id="clip0_4024_3297">
            <rect width="16" height="16" fill="white" transform="translate(0 0.25)" />
        </clipPath>
    </defs>
</svg>