<svg width="24" height="25" viewBox="0 0 24 25" fill="none" xmlns="http://www.w3.org/2000/svg">
<path d="M17.6868 11.0768C16.5454 11.1021 15.48 10.747 14.5669 10.0875V14.6279C14.5669 16.3528 13.5015 17.8747 11.8781 18.4835C10.2801 19.0923 8.45375 18.6357 7.33767 17.3421C6.19622 16.0231 5.99329 14.1714 6.80499 12.6494C7.61669 11.1529 9.29082 10.3158 11.0157 10.5441V12.827C10.2293 12.5733 9.36691 12.8524 8.88497 13.5119C8.42839 14.1967 8.42839 15.0845 8.91033 15.744C9.39228 16.4035 10.2547 16.6826 11.0157 16.4289C11.802 16.1752 12.3347 15.4396 12.3347 14.6279V5.75H14.5669C14.5669 5.95292 14.5669 6.13048 14.6176 6.33341C14.7698 7.17047 15.2517 7.90607 15.9873 8.36265C16.4693 8.69241 17.078 8.86996 17.6868 8.86996V11.0768Z" fill="white"/>
</svg>
