<svg width="24" height="24" viewBox="0 0 24 24" fill="none" xmlns="http://www.w3.org/2000/svg">
<path d="M12 24C18.6274 24 24 18.6274 24 12C24 5.37258 18.6274 0 12 0C5.37258 0 0 5.37258 0 12C0 18.6274 5.37258 24 12 24Z" fill="#FF0000"/>
<path d="M18.266 9.36954C18.1217 8.83018 17.6978 8.40632 17.1584 8.26194C16.1818 8 12.264 8 12.264 8C12.264 8 8.34616 8 7.36954 8.26194C6.83018 8.40632 6.40632 8.83018 6.26194 9.36954C6 10.3462 6 12.385 6 12.385C6 12.385 6 14.4239 6.26194 15.4005C6.40632 15.9398 6.83018 16.3637 7.36954 16.508C8.34616 16.77 12.264 16.77 12.264 16.77C12.264 16.77 16.1818 16.77 17.1584 16.508C17.6978 16.3637 18.1217 15.9398 18.266 15.4005C18.528 14.4239 18.528 12.385 18.528 12.385C18.528 12.385 18.5269 10.3462 18.266 9.36954Z" fill="white"/>
<path d="M11.0098 14.2643L14.2645 12.3854L11.0098 10.5063V14.2643Z" fill="#FF0000"/>
</svg>
