<svg width="24" height="25" viewBox="0 0 24 25" fill="none" xmlns="http://www.w3.org/2000/svg">
<path d="M10.6705 14.179V10.321L14.0682 12.2501L10.6705 14.179ZM18.2283 9.10703C18.0788 8.54517 17.6383 8.10274 17.079 7.95258C16.0652 7.67969 12 7.67969 12 7.67969C12 7.67969 7.93479 7.67969 6.92098 7.95258C6.36166 8.10274 5.92114 8.54517 5.77165 9.10703C5.5 10.1253 5.5 12.25 5.5 12.25C5.5 12.25 5.5 14.3746 5.77165 15.393C5.92114 15.9548 6.36166 16.3973 6.92098 16.5475C7.93479 16.8203 12 16.8203 12 16.8203C12 16.8203 16.0652 16.8203 17.079 16.5475C17.6383 16.3973 18.0788 15.9548 18.2283 15.393C18.5 14.3746 18.5 12.25 18.5 12.25C18.5 12.25 18.5 10.1253 18.2283 9.10703Z" fill="white"/>
</svg>
